<?xml version="1.0" encoding="iso-8859-1"?>
<!-- Generator: Adobe Illustrator 19.0.0, SVG Export Plug-In . SVG Version: 6.00 Build 0)  -->
<svg version="1.1" id="Layer_1" xmlns="http://www.w3.org/2000/svg" xmlns:xlink="http://www.w3.org/1999/xlink" x="0px" y="0px"
	 viewBox="0 0 512 512" style="enable-background:new 0 0 512 512;" xml:space="preserve">
<path style="fill:#2BA5F7;" d="M440.659,31.534v448.931c0,17.412-14.122,31.534-31.534,31.534H102.888
	c-17.426,0-31.548-14.122-31.548-31.534V31.534C71.341,14.122,85.463,0,102.888,0h306.237C426.537,0,440.659,14.122,440.659,31.534z
	"/>
<g>
	<path style="fill:#2197D8;" d="M108.192,480.466V31.534C108.192,14.122,122.314,0,139.74,0h-36.852
		C85.463,0,71.341,14.122,71.341,31.534v448.931c0,17.412,14.122,31.534,31.548,31.534h36.852
		C122.314,512,108.192,497.878,108.192,480.466z"/>
	<rect x="118.451" y="46.472" style="fill:#2197D8;" width="275.084" height="98.657"/>
</g>
<rect x="125.032" y="53.053" style="fill:#666666;" width="261.923" height="85.496"/>
<g>
	<rect x="227.322" y="294.642" style="fill:#F7B239;" width="57.344" height="61.621"/>
	<rect x="125.032" y="294.642" style="fill:#F7B239;" width="57.344" height="61.621"/>
	<rect x="125.032" y="400.721" style="fill:#F7B239;" width="57.344" height="61.621"/>
	<rect x="227.322" y="400.721" style="fill:#F7B239;" width="57.344" height="61.621"/>
	<polygon style="fill:#F7B239;" points="386.961,419.674 386.961,462.343 329.618,462.343 329.618,419.674 329.618,400.721 
		329.618,294.642 386.961,294.642 386.961,400.721 	"/>
	<rect x="329.611" y="188.548" style="fill:#F7B239;" width="57.344" height="61.634"/>
	<rect x="227.322" y="188.548" style="fill:#F7B239;" width="57.344" height="61.634"/>
	<rect x="125.032" y="188.548" style="fill:#F7B239;" width="57.344" height="61.634"/>
</g>
<g>
	<rect x="125.032" y="294.642" style="fill:#E09B2D;" width="10.582" height="61.621"/>
	<rect x="125.032" y="400.721" style="fill:#E09B2D;" width="10.582" height="61.621"/>
	<rect x="125.032" y="188.548" style="fill:#E09B2D;" width="10.582" height="61.634"/>
	<rect x="227.322" y="294.642" style="fill:#E09B2D;" width="10.582" height="61.621"/>
	<rect x="227.322" y="400.721" style="fill:#E09B2D;" width="10.582" height="61.621"/>
	<rect x="227.322" y="188.548" style="fill:#E09B2D;" width="10.582" height="61.634"/>
	<rect x="329.611" y="294.642" style="fill:#E09B2D;" width="10.582" height="167.701"/>
	<rect x="329.611" y="188.548" style="fill:#E09B2D;" width="10.582" height="61.634"/>
</g>
<g>
</g>
<g>
</g>
<g>
</g>
<g>
</g>
<g>
</g>
<g>
</g>
<g>
</g>
<g>
</g>
<g>
</g>
<g>
</g>
<g>
</g>
<g>
</g>
<g>
</g>
<g>
</g>
<g>
</g>
</svg>
