<?xml version="1.0" encoding="iso-8859-1"?>
<!-- Generator: Adobe Illustrator 19.0.0, SVG Export Plug-In . SVG Version: 6.00 Build 0)  -->
<svg version="1.1" id="Layer_1" xmlns="http://www.w3.org/2000/svg" xmlns:xlink="http://www.w3.org/1999/xlink" x="0px" y="0px"
	 viewBox="0 0 512 512" style="enable-background:new 0 0 512 512;" xml:space="preserve">
<g transform="translate(1 1)">
	<path style="fill:#0096E6;" d="M7.905,263.533c-5.12,0-8.533-3.413-8.533-8.533c0-140.8,115.2-256,256-256
		c65.707,0,128.853,24.747,176.64,70.827c3.413,3.413,3.413,8.533,0,11.947s-8.533,3.413-11.947,0
		c-44.373-42.667-103.253-65.707-164.693-65.707C123.959,16.067,16.439,123.587,16.439,255
		C16.439,260.12,13.025,263.533,7.905,263.533z"/>
	<path style="fill:#FFFFFF;" d="M255.372,434.2c-98.987,0-179.2-80.213-179.2-179.2s80.213-179.2,179.2-179.2
		s179.2,80.213,179.2,179.2S354.359,434.2,255.372,434.2L255.372,434.2z"/>
	<g>
		<path style="fill:#0096E6;" d="M255.372,442.733c-103.253,0-187.733-84.48-187.733-187.733s84.48-187.733,187.733-187.733
			S443.105,151.747,443.105,255S358.625,442.733,255.372,442.733z M255.372,84.333c-93.867,0-170.667,76.8-170.667,170.667
			s76.8,170.667,170.667,170.667S426.039,348.867,426.039,255S349.239,84.333,255.372,84.333z"/>
		<path style="fill:#0096E6;" d="M255.372,417.133c-5.12,0-8.533-3.413-8.533-8.533v-17.067c0-5.12,3.413-8.533,8.533-8.533
			c5.12,0,8.533,3.413,8.533,8.533V408.6C263.905,413.72,260.492,417.133,255.372,417.133z M408.972,263.533h-17.067
			c-5.12,0-8.533-3.413-8.533-8.533s3.413-8.533,8.533-8.533h17.067c5.12,0,8.533,3.413,8.533,8.533
			S414.092,263.533,408.972,263.533z M118.839,263.533h-17.067c-5.12,0-8.533-3.413-8.533-8.533s3.413-8.533,8.533-8.533h17.067
			c5.12,0,8.533,3.413,8.533,8.533S123.959,263.533,118.839,263.533z M255.372,127c-5.12,0-8.533-3.413-8.533-8.533V101.4
			c0-5.12,3.413-8.533,8.533-8.533c5.12,0,8.533,3.413,8.533,8.533v17.067C263.905,123.587,260.492,127,255.372,127z"/>
	</g>
	<path style="fill:#D0E8F9;" d="M280.972,246.467c0,14.507-11.093,25.6-25.6,25.6s-25.6-11.093-25.6-25.6
		c0-14.507,11.093-25.6,25.6-25.6S280.972,231.96,280.972,246.467L280.972,246.467z"/>
	<g>
		<path style="fill:#0096E6;" d="M255.372,280.6c-18.773,0-34.133-15.36-34.133-34.133s15.36-34.133,34.133-34.133
			s34.133,15.36,34.133,34.133S274.145,280.6,255.372,280.6z M255.372,229.4c-9.387,0-17.067,7.68-17.067,17.067
			s7.68,17.067,17.067,17.067c9.387,0,17.067-7.68,17.067-17.067S264.759,229.4,255.372,229.4z"/>
		<path style="fill:#0096E6;" d="M161.505,348.867c-2.56,0-4.267-0.853-5.973-2.56c-3.413-3.413-3.413-8.533,0-11.947l75.947-75.947
			c3.413-3.413,8.533-3.413,11.947,0c3.413,3.413,3.413,8.533,0,11.947l-75.947,75.947
			C165.772,348.013,164.065,348.867,161.505,348.867z M255.372,229.4c-5.12,0-8.533-3.413-8.533-8.533v-51.2
			c0-5.12,3.413-8.533,8.533-8.533c5.12,0,8.533,3.413,8.533,8.533v51.2C263.905,225.987,260.492,229.4,255.372,229.4z
			 M434.572,84.333h-76.8c-5.12,0-8.533-3.413-8.533-8.533s3.413-8.533,8.533-8.533h59.733V7.533c0-5.12,3.413-8.533,8.533-8.533
			c5.12,0,8.533,3.413,8.533,8.533V84.333z"/>
		<path style="fill:#0096E6;" d="M250.252,511c-5.12,0-8.533-4.267-8.533-8.533l0,0c0-5.12,4.267-8.533,8.533-8.533l0,0
			c4.267,0,8.533,4.267,8.533,8.533l0,0C258.785,507.587,255.372,511,250.252,511L250.252,511L250.252,511z M267.319,502.467
			c0-4.267,3.413-8.533,7.68-9.387l0,0l0,0l0,0c4.267,0,8.533,3.413,9.387,7.68l0,0c0,4.267-3.413,8.533-7.68,9.387l0,0
			c0,0,0,0-0.853,0l0,0C271.585,510.147,268.172,506.733,267.319,502.467z M223.799,509.293c-4.267-0.853-7.68-5.12-7.68-9.387l0,0
			c0.853-5.12,5.12-7.68,9.387-7.68l0,0c4.267,0.853,7.68,5.12,7.68,9.387l0,0c-0.853,4.267-4.267,7.68-8.533,7.68l0,0
			C224.652,509.293,224.652,509.293,223.799,509.293z M292.919,499.907c-0.853-4.267,2.56-9.387,6.827-10.24l0,0
			c4.267-0.853,9.387,1.707,10.24,6.827l0,0c0.853,4.267-2.56,9.387-6.827,10.24l0,0c-0.853,0-0.853,0-1.707,0l0,0
			C297.185,506.733,293.772,504.173,292.919,499.907z M198.199,504.173c-4.267-0.853-7.68-5.973-6.827-10.24l0,0
			c0.853-4.267,5.973-7.68,10.24-6.827l0,0c4.267,0.853,7.68,5.973,6.827,10.24l0,0c-0.853,4.267-4.267,6.827-8.533,6.827l0,0
			C199.052,505.027,198.199,505.027,198.199,504.173z M318.519,494.787c-1.707-4.267,0.853-9.387,5.973-10.24l0,0l0,0l0,0
			c4.267-0.853,9.387,1.707,10.24,5.973l0,0c1.707,4.267-0.853,9.387-5.973,10.24l0,0c-0.853,0-1.707,0-2.56,0l0,0
			C322.785,500.76,319.372,498.2,318.519,494.787z M172.599,497.347c-4.267-1.707-6.827-6.827-5.12-11.093l0,0
			c1.707-4.267,6.827-6.827,11.093-5.12l0,0l0,0l0,0c4.267,1.707,6.827,6.827,5.12,11.093l0,0c-0.853,3.413-4.267,5.973-7.68,5.973
			l0,0C174.305,497.347,173.452,497.347,172.599,497.347z M342.412,487.107c-1.707-4.267,0-9.387,4.267-11.093l0,0
			c4.267-1.707,9.387,0,11.093,4.267l0,0c1.707,4.267,0,9.387-4.267,11.093l0,0c-0.853,0-2.56,0.853-3.413,0.853l0,0
			C347.532,492.227,344.119,489.667,342.412,487.107z M147.852,487.107c-4.267-1.707-5.973-6.827-4.267-11.093l0,0
			c1.707-4.267,6.827-5.973,11.093-4.267l0,0c4.267,1.707,5.973,6.827,4.267,11.093l0,0c-1.707,3.413-4.267,5.12-7.68,5.12l0,0
			C150.412,487.96,148.705,487.96,147.852,487.107z M366.305,476.867c-2.56-4.267-0.853-9.387,3.413-11.947l0,0
			c4.267-2.56,9.387-0.853,11.093,3.413l0,0c2.56,4.267,0.853,9.387-3.413,11.093l0,0c-0.853,0.853-2.56,0.853-4.267,0.853l0,0
			C370.572,481.133,367.159,479.427,366.305,476.867z M124.812,475.16c-4.267-2.56-5.12-7.68-2.56-11.947l0,0
			c2.56-4.267,7.68-5.12,11.947-3.413l0,0l0,0l0,0c4.267,2.56,5.12,7.68,2.56,11.947l0,0c-1.707,2.56-4.267,4.267-7.68,4.267l0,0
			C127.372,476.013,125.665,476.013,124.812,475.16z M388.492,464.067c-2.56-4.267-1.707-9.387,1.707-11.947l0,0
			c4.267-2.56,9.387-1.707,11.947,2.56l0,0c2.56,4.267,1.707,9.387-1.707,11.947l0,0c-1.707,0.853-3.413,1.707-5.12,1.707l0,0
			C392.759,467.48,390.199,466.627,388.492,464.067z M102.625,460.653c-3.413-2.56-4.267-8.533-1.707-11.947l0,0
			c2.56-3.413,8.533-4.267,11.947-1.707l0,0l0,0l0,0c3.413,2.56,4.267,8.533,1.707,11.947l0,0c-1.707,2.56-4.267,3.413-6.827,3.413
			l0,0C106.039,461.507,104.332,461.507,102.625,460.653z M408.972,448.707c-3.413-3.413-2.56-8.533,0.853-11.947l0,0
			c3.413-3.413,8.533-2.56,11.947,0.853l0,0c3.413,3.413,2.56,8.533-0.853,11.947l0,0c-1.707,1.707-3.413,1.707-5.12,1.707l0,0
			C413.239,452.12,410.679,451.267,408.972,448.707z M82.145,443.587L82.145,443.587c-3.413-3.413-3.413-8.533-0.853-11.947l0,0
			c3.413-3.413,8.533-3.413,11.947-0.853l0,0c3.413,3.413,3.413,8.533,0.853,11.947l0,0c-1.707,1.707-4.267,2.56-5.973,2.56l0,0
			C85.559,445.293,83.852,444.44,82.145,443.587z M428.599,432.493c-3.413-3.413-3.413-8.533,0-11.947l0,0l0,0l0,0
			c3.413-3.413,8.533-3.413,11.947,0l0,0c3.413,3.413,3.413,8.533,0,11.947l0,0c-1.707,0.853-4.267,1.707-5.973,1.707l0,0
			C432.012,434.2,430.305,433.347,428.599,432.493z M63.372,424.813L63.372,424.813c-3.413-3.413-2.56-8.533,0.853-11.947l0,0
			c3.413-3.413,9.387-3.413,11.947,0l0,0c3.413,3.413,2.56,8.533-0.853,11.947l0,0c-1.707,1.707-3.413,1.707-5.973,1.707l0,0
			C67.639,427.373,65.079,426.52,63.372,424.813z M445.665,412.867c-3.413-2.56-4.267-8.533-1.707-11.947l0,0l0,0l0,0
			c2.56-3.413,8.533-4.267,11.947-1.707l0,0c3.413,2.56,4.267,8.533,1.707,11.947l0,0c-1.707,2.56-4.267,3.413-6.827,3.413l0,0
			C449.079,415.427,447.372,414.573,445.665,412.867z M47.159,403.48L47.159,403.48c-2.56-3.413-1.707-8.533,1.707-11.947l0,0
			c4.267-2.56,9.387-1.707,11.947,1.707l0,0c2.56,4.267,1.707,9.387-1.707,11.947l0,0c-1.707,0.853-3.413,1.707-5.12,1.707l0,0
			C51.425,407.747,48.865,406.04,47.159,403.48z M461.025,392.387c-4.267-2.56-5.12-7.68-2.56-11.947l0,0
			c2.56-4.267,7.68-5.12,11.947-2.56l0,0c4.267,2.56,5.12,7.68,2.56,11.947l0,0c-1.707,2.56-4.267,4.267-6.827,4.267l0,0
			C464.439,394.093,462.732,393.24,461.025,392.387z M32.652,381.293c-2.56-4.267-0.853-9.387,3.413-11.947l0,0
			c4.267-2.56,9.387-0.853,11.947,3.413l0,0l0,0l0,0c2.56,4.267,0.853,9.387-3.413,11.947l0,0c-1.707,0.853-2.56,0.853-4.267,0.853
			l0,0C36.919,385.56,34.359,383.853,32.652,381.293z M473.825,371.053c-4.267-1.707-5.973-6.827-4.267-11.093l0,0
			c1.707-4.267,6.827-5.973,11.093-4.267l0,0c4.267,1.707,5.973,6.827,4.267,11.093l0,0c-1.707,3.413-4.267,5.12-7.68,5.12l0,0
			C476.385,371.907,475.532,371.053,473.825,371.053z M20.705,358.253c-1.707-4.267,0-9.387,4.267-11.093l0,0
			c4.267-1.707,9.387,0,11.093,4.267l0,0c1.707,4.267,0,9.387-4.267,11.093l0,0c-0.853,0.853-2.56,0.853-3.413,0.853l0,0
			C25.825,363.373,22.412,360.813,20.705,358.253z M484.919,347.16c-4.267-1.707-6.827-6.827-5.12-11.093l0,0
			c1.707-4.267,6.827-6.827,11.093-5.12l0,0c4.267,1.707,6.827,6.827,5.12,11.093l0,0c-0.853,3.413-4.267,5.973-7.68,5.973l0,0
			C486.625,348.013,485.772,348.013,484.919,347.16z M11.319,333.507c-1.707-4.267,0.853-9.387,5.12-11.093l0,0
			c4.267-1.707,9.387,0.853,10.24,5.973l0,0c1.707,4.267-0.853,9.387-5.12,11.093l0,0c-0.853,0-1.707,0-2.56,0l0,0
			C16.439,338.627,13.025,336.92,11.319,333.507z M493.452,323.267c-4.267-0.853-7.68-5.973-5.973-10.24l0,0
			c0.853-4.267,5.973-7.68,10.24-5.973l0,0c4.267,0.853,7.68,5.973,5.973,10.24l0,0c-0.853,4.267-4.267,6.827-8.533,6.827l0,0
			C494.305,323.267,494.305,323.267,493.452,323.267z M4.492,307.907L4.492,307.907c-0.853-4.267,1.707-9.387,6.827-10.24l0,0
			c4.267-0.853,9.387,1.707,10.24,6.827l0,0c0.853,4.267-1.707,9.387-6.827,10.24l0,0c-0.853,0-0.853,0-1.707,0l0,0
			C8.759,314.733,5.345,311.32,4.492,307.907z M499.425,298.52c-5.12-0.853-8.533-5.12-7.68-9.387l0,0l0,0l0,0
			c0.853-4.267,5.12-7.68,9.387-7.68l0,0c4.267,0.853,7.68,5.12,7.68,9.387l0,0c-0.853,4.267-4.267,7.68-8.533,7.68l0,0H499.425z
			 M1.079,281.453c-0.853-4.267,2.56-8.533,7.68-9.387l0,0c4.267-0.853,8.533,2.56,9.387,7.68l0,0
			c0.853,4.267-2.56,8.533-7.68,9.387l0,0H9.612l0,0C4.492,289.133,1.079,285.72,1.079,281.453z M501.985,272.92
			c-4.267,0-8.533-4.267-8.533-8.533l0,0l0,0l0,0c0-4.267,4.267-8.533,8.533-8.533l0,0c4.267,0,8.533,4.267,8.533,8.533l0,0
			C511.372,269.507,507.105,272.92,501.985,272.92L501.985,272.92C502.839,272.92,502.839,272.92,501.985,272.92z M-0.628,255
			c0-5.12,3.413-8.533,8.533-8.533l0,0c4.267,0,8.533,3.413,8.533,8.533l0,0l0,0l0,0c0,4.267-4.267,8.533-8.533,8.533l0,0
			C2.785,263.533-0.628,259.267-0.628,255z"/>
	</g>
</g>
<g>
</g>
<g>
</g>
<g>
</g>
<g>
</g>
<g>
</g>
<g>
</g>
<g>
</g>
<g>
</g>
<g>
</g>
<g>
</g>
<g>
</g>
<g>
</g>
<g>
</g>
<g>
</g>
<g>
</g>
</svg>
